# xmcd CD database file
#
# Track frame offsets:
#	150
#	9326
#	16329
#	23983
#	31408
#	39190
#	47219
#	56855
#	65562
#	76947
#	87125
#	98393
#	109991
#	125620
#	145328
#	155471
#	169156
#	191347
#
# Disc length: 2855 seconds
#
# Revision: 1
# Processed by: cddbd v1.5.1PL0 Copyright (c) Steve Scherf et al.
# Submitted via: CDex 1.51
#
DISCID=e20b2512
DTITLE=内田十紀夫 - ラグタイム・ギター
DYEAR=1900
DGENRE=Blues
TTITLE0=example
TTITLE1=Jesse James
TTITLE2=Red River Valley
TTITLE3=Victory Rag
TTITLE4=Blue Bell
TTITLE5=When The Saints Go Marching In
TTITLE6=Gary Davis' Pastime
TTITLE7=Rag In C
TTITLE8=Great Bs' Stomp
TTITLE9=Black's Rag Continuation
TTITLE10=G Rag Journey
TTITLE11=Raggy blues In E
TTITLE12=At A Georgia Campmeeting
TTITLE13=Silver Swan Rag
TTITLE14=Grace And Beauty
TTITLE15=Maple Leaf Rag
TTITLE16=The Entertainer
TTITLE17=Solace-A mexican Serenade-
EXTD=
EXTT0=
EXTT1=
EXTT2=
EXTT3=
EXTT4=
EXTT5=
EXTT6=
EXTT7=
EXTT8=
EXTT9=
EXTT10=
EXTT11=
EXTT12=
EXTT13=
EXTT14=
EXTT15=
EXTT16=
EXTT17=
PLAYORDER=
